<svg xmlns="http://www.w3.org/2000/svg" viewBox="0 0 120 40" fill="none">
  <rect width="120" height="40" rx="4" fill="#004D40"/>
  <path d="M12 28L18 12h4l6 16h-4l-1.2-3.5h-5.6L18 28h-4zm5.6-6.5h3.8L19.5 16l-1.9 5.5z" fill="#FFD600"/>
  <path d="M32 28V12h5c3.5 0 5.5 1.5 5.5 4.2 0 1.8-1 3-2.5 3.5 1.8.4 3 1.9 3 3.8 0 3-2.2 4.5-5.8 4.5H32zm3.5-9.5h1.8c1.5 0 2.2-.7 2.2-1.8s-.7-1.7-2.2-1.7h-1.8v3.5zm0 6.5h2c1.6 0 2.5-.7 2.5-2s-.9-2-2.5-2h-2v4z" fill="#FFD600"/>
  <text x="48" y="24" font-family="Arial,sans-serif" font-weight="bold" font-size="11" fill="#FFD600">ABN·AMRO</text>
</svg>
