<svg width="141" height="35" viewBox="0 0 141 35" fill="none" xmlns="http://www.w3.org/2000/svg">
<path d="M78.4176 25.4585V32.1616C74.6478 34.0539 71.1041 34.9996 67.5613 34.9996C57.7341 34.9996 51.8282 29.2397 51.8282 21.9163C51.8282 14.0237 58.5864 7.50781 67.1833 7.50781C69.3101 7.50781 70.9173 7.88777 72.6015 8.44354C73.8094 8.82151 74.5544 9.25461 75.3099 9.25461C75.9734 9.25461 76.1577 8.152 76.2526 7.50781H77.1898L78.0421 16.5761H76.9062C76.4418 14.7816 75.592 13.3094 74.4576 12.2779C72.6934 10.4824 70.2548 9.53622 67.4679 9.53622C61.5615 9.53622 58.1151 14.2144 58.1151 21.2557C58.1151 28.1997 62.3204 32.92 67.9373 32.92C69.5917 32.92 71.1046 32.5421 72.9557 31.6903V24.794C72.9557 22.5773 72.601 21.725 69.404 21.725V20.6875H81.269V21.725C78.3232 21.725 78.4176 22.6712 78.4176 25.4585ZM45.7385 14.4031V34.5293H44.1815L24.0543 13.7401C24.1487 14.3087 24.1487 14.7811 24.1487 15.3468V28.0104C24.1487 31.879 24.1487 33.2955 27.6915 33.2955V34.3351H18.2438V33.2955C21.8243 33.2955 21.8243 31.5949 21.8243 28.0104V13.5737C21.8243 11.4285 21.8243 9.07432 18.0545 9.07432V8.08097H26.9668L43.5189 25.0786C43.4245 24.6072 43.4245 24.3246 43.4245 23.6621V14.4031C43.4245 10.6706 43.5189 9.07432 39.9662 9.07432V8.08097H49.4119V9.07432C45.9248 9.07432 45.7385 10.5792 45.7385 14.4031ZM0 34.3351V33.2955C2.27029 33.2955 3.87752 33.1068 3.87752 29.8208V12.5605C3.87752 9.15875 2.64776 9.07432 0 9.07432V8.08097H13.3073V9.07432C10.5811 9.07432 9.44819 9.15875 9.44819 12.5605V29.8208C9.44819 33.1068 10.8682 33.2955 13.3073 33.2955V34.3351H0Z" fill="#000066"/>
<path d="M104.511 34.3354C104.038 33.4871 103.943 32.162 103.943 31.8799C103.943 31.4085 103.943 30.744 104.227 30.289L103.187 30.4857C102.904 30.8399 102.809 31.0341 102.809 31.2158L103.283 31.0346C103.377 31.0346 103.472 31.2158 103.564 31.409C103.471 31.8804 102.904 31.8804 102.714 32.0696C102.432 33.0143 103.283 33.5815 103.377 34.3359H104.511V34.3354ZM140.789 22.2002C140.789 18.0883 139.091 13.9326 136.061 10.9546C134.749 9.63097 133.31 8.99622 132.173 7.69345C131.607 7.13022 131.173 6.56352 130.795 5.80709C130.32 5.33376 130.035 5.05116 129.469 4.76855C129.565 5.05116 129.661 5.33376 129.757 5.61786H129.661C129.188 5.61786 128.714 5.33327 128.341 5.05066L128.714 4.67071C128.618 4.49488 128.341 4.49488 128.146 4.49488C126.635 4.23959 125.253 5.05066 123.785 5.33327V5.52399C124.727 5.80659 124.903 6.94149 125.426 7.50769C125.516 7.50769 125.606 7.50769 125.972 7.50769C126.161 7.50769 126.446 7.69295 126.635 7.69295C126.635 7.5077 126.446 7.12973 126.446 7.12973C126.635 6.94199 126.826 6.94199 127.012 7.12973C127.483 7.41432 128.146 6.94199 128.618 7.69295C128.053 7.69295 127.483 7.69295 127.012 7.9845C127.012 8.08085 127.299 8.24873 127.203 8.44293C126.733 8.24823 126.161 8.44293 125.972 8.08085L125.879 8.15188C126.447 8.82139 127.3 9.34886 128.147 9.63097C129.376 9.82169 130.417 9.25499 131.609 9.5366C135.874 11.6201 138.902 16.4831 138.902 21.348C138.902 28.2934 134.932 31.0341 132.461 31.0341C131.987 31.0341 131.265 30.744 130.985 30.4857C131.265 29.5197 131.436 28.3913 131.436 26.6867C131.436 22.6721 129.851 18.3237 127.676 16.1051C126.636 15.0646 125.516 14.2152 124.354 14.2152C123.786 14.2152 123.217 14.2153 122.842 14.6871C122.369 15.0651 122.083 15.821 122.179 16.2933C121.423 16.861 120.197 17.1426 119.252 17.1426C118.21 17.1426 116.891 16.7657 115.726 15.8205C115.726 15.4425 115.726 14.9712 115.726 14.404C115.453 14.3096 114.512 13.7414 114.981 13.3098C115.266 13.4072 115.453 13.574 115.549 13.651C115.454 13.0347 115.454 12.2777 114.981 11.71C114.791 11.71 114.512 11.71 114.228 11.5208C113.944 11.2402 113.655 10.8622 113.655 10.3889C113.944 10.8622 114.413 10.6715 114.696 10.9551C114.228 9.82219 114.413 9.34985 113.564 7.69395C113.373 6.84811 112.524 6.37479 111.959 5.80759C111.675 5.61885 111.582 5.33426 111.236 5.33426C110.862 5.24138 110.862 4.76905 110.862 4.49588C110.955 4.49588 111.236 4.6717 111.422 4.76905C110.862 3.48465 110.482 2.07758 109.257 1.31966L108.969 1.5069C108.498 1.5069 107.931 1.5069 107.458 1.5069C107.644 1.31966 108.023 1.22479 108.309 1.03656C108.023 0.751962 107.838 0.656602 107.277 0.656602C107.018 0.751963 106.671 1.03656 106.309 1.03656H106.218C106.218 0.751962 106.12 0.374491 106.671 0.186252C106.12 0.0898976 105.647 0.0898976 104.984 0.186252C104.89 0.657097 104.609 0.941691 104.609 1.31966C104.328 1.5069 104.229 1.7915 103.945 2.07758C103.945 1.5069 104.229 0.941194 104.328 0.374491C103.945 0.467866 103.474 0.75246 103.285 0.75246C102.529 0.374492 101.583 0 101.205 0C101.773 0.374491 101.493 1.03655 101.583 1.5069L101.205 1.31966C101.114 0.941194 100.637 0.657097 100.548 0.186252C99.9782 0.186252 99.5983 0.374492 99.127 0.657098V0.75246C99.4086 0.75246 99.7895 1.03705 99.9782 1.32015C99.3177 1.32015 98.8438 1.03705 98.1813 1.03705C98.1813 1.03705 98.1813 0.94169 98.0949 0.94169C97.8396 1.03705 97.5813 1.32015 97.4095 1.5074C96.7464 2.07808 96.2756 2.54793 95.992 3.38979C96.1812 3.38979 96.4643 3.38979 96.5611 3.48515C96.1812 3.57852 95.992 4.05135 95.6145 4.14721C95.6145 4.49588 95.6145 5.05165 95.6145 5.52498C95.3309 5.80759 94.9539 6.09019 94.7647 6.65689C94.2923 8.15237 94.1955 9.82219 94.1955 11.71C94.1026 12.09 93.9159 12.1844 93.7251 12.2782V13.7414C93.7251 13.7414 94.2923 13.214 94.5755 13.0352C94.5755 13.4077 94.5755 13.9331 94.5755 14.2152C94.1955 14.2152 93.9159 14.6871 93.9159 14.9712C93.9159 15.3482 94.0102 15.7271 94.0102 16.1051C94.0102 16.2933 94.0102 16.2933 94.1031 16.4831C94.1031 16.2933 94.2923 16.1051 94.5755 16.0112C94.5755 16.0112 94.7647 15.8205 95.1417 15.8205C94.8615 16.1051 94.7647 16.4831 94.5755 16.861C94.2923 17.1426 94.2923 17.1426 94.2923 17.1426C94.2923 17.1426 94.196 17.3324 94.196 17.4277C94.5759 19.3633 95.1417 21.0644 95.9001 22.9155C95.1422 24.1338 94.2928 26.4975 93.7256 28.7633C93.2533 28.2934 92.5908 28.1995 92.0226 28.1995C91.4926 28.2929 90.9294 28.4822 90.5464 29.0494C89.9793 28.7633 89.2283 28.8581 88.8627 29.2401C88.0795 29.916 88.0795 30.2885 88.0795 30.8394C87.8883 31.0341 87.5078 31.5034 87.5078 32.162C87.5078 33.0138 87.6022 33.5805 88.0795 34.3354H102.247C102.151 34.0543 101.962 33.6778 101.773 33.4871C101.493 32.9199 101.68 32.162 101.68 31.5953C101.961 31.0336 102.247 30.4852 102.626 30.0079C102.717 29.7218 102.626 29.7218 102.717 29.63L103.38 29.5187C103.756 29.5187 104.04 29.2396 104.513 29.2396C104.798 29.6295 104.798 28.9535 105.273 28.7628C106.309 28.5735 107.277 28.7628 107.838 29.5182C107.838 29.6295 107.931 29.6295 107.931 29.7209C107.838 29.7209 107.645 29.7209 107.458 29.7209C106.93 29.5182 106.309 29.2391 105.647 29.5182C105.647 29.7209 105.556 29.7209 105.556 30.0069C105.556 30.1942 105.556 30.1942 105.556 30.4842C105.928 30.4842 106.218 30.8384 106.584 31.0326C106.758 30.7425 107.277 30.4842 107.645 30.4842C108.118 30.4842 108.781 30.743 108.781 31.5024C108.781 31.8789 108.781 32.2569 108.781 32.5415C109.161 32.9194 109.631 33.0128 110.103 33.2C109.917 33.58 109.631 33.58 109.347 33.58H108.595C108.498 33.4866 108.309 33.4866 108.309 33.2C108.024 33.58 107.839 33.9594 107.645 34.3344H118.586C118.402 33.9594 118.211 33.6768 118.117 33.4861C117.927 32.9189 117.927 32.161 117.927 31.5943L118.968 30.1942C119.532 30.1942 120.008 30.0069 121.045 29.9151C121.237 29.629 121.045 29.5177 121.897 29.5177C122.557 29.5177 123.031 29.629 123.218 29.7204C123.313 29.9151 123.313 29.9151 123.218 30.1003C123.031 30.2876 122.653 29.9151 122.37 30.0069C122.18 30.1942 122.466 30.2876 122.466 30.4842C122.653 30.6476 121.615 30.2876 121.615 30.2876C121.615 30.2876 121.424 30.8379 121.331 31.0326C121.331 31.0326 121.708 31.4071 121.897 31.5943C122.084 31.8784 121.615 32.161 121.615 32.4456C121.424 32.3522 121.046 32.0676 121.046 32.161C120.855 32.9189 121.046 33.5795 120.954 34.3344C121.332 34.3344 121.615 34.3344 121.99 34.3344L122.084 32.7302C122.18 31.7835 123.313 30.1008 123.977 30.1008C124.356 30.1008 124.637 30.2881 124.905 30.4842C125.078 30.8384 125.518 31.0326 125.518 31.2143C125.518 31.4076 125.255 31.5024 124.816 31.5024C124.637 31.5024 124.637 31.2143 124.355 31.0331L123.787 31.5948C123.787 31.5948 124.446 32.1615 124.446 32.5415C124.446 33.0128 124.355 33.2 124.069 33.4861L123.502 32.3522C123.217 32.3522 122.747 32.9194 122.747 33.2C122.747 33.58 122.556 33.7687 122.556 34.3344H128.342C129 34.3344 129.567 34.1482 130.227 33.7682C130.608 33.7682 130.887 33.7682 131.355 33.7682C133.687 33.7682 135.496 33.1062 137.201 31.4071C139.468 29.2401 140.789 25.6496 140.789 22.2002ZM120.475 30.744L119.53 30.8394C119.913 31.0341 119.913 31.5034 119.913 31.5953C119.913 31.8794 119.72 32.162 119.53 32.3527C119.342 32.1615 119.343 31.8794 119.154 31.5953C118.966 31.5953 118.871 32.0686 118.871 32.2574C118.871 33.1072 119.251 33.7692 119.53 34.3354H120.383C120.289 33.5805 120.096 32.9199 120.096 32.0691C120.096 31.5958 120.383 31.0341 120.475 30.744ZM108.116 31.8799C108.116 31.5034 107.837 31.4085 107.456 31.4085C107.275 31.4085 106.843 31.6907 106.843 31.8799C106.843 32.2579 106.669 34.3354 106.669 34.3354H107.275C107.55 33.4871 108.116 32.3532 108.116 31.8799ZM106.118 31.784C106.02 31.784 106.216 31.9752 105.271 31.0336C105.078 31.0336 104.796 31.5953 104.796 31.784C104.796 32.542 104.982 33.5805 105.271 34.3354H106.02C106.02 33.4871 106.118 32.5424 106.118 31.784ZM130.795 8.08135C130.606 7.69345 130.226 7.50819 129.942 7.50819C129.661 7.13022 129.282 6.65689 128.902 6.65689C129.188 6.65689 129.565 6.37429 130.034 6.37429C130.225 6.84762 130.606 7.13022 130.698 7.50819L130.795 8.08135ZM127.956 6.0897C127.58 6.0897 127.299 6.0897 126.919 6.0897C126.732 5.80709 126.445 6.0897 126.257 6.0897C126.065 6.0897 125.971 6.0897 125.605 5.80709C126.16 5.80709 126.445 5.52448 126.919 5.33376C127.299 5.61786 127.675 5.71322 127.956 6.0897ZM125.69 16.8605C125.075 16.6738 124.727 16.3897 124.161 16.3897C123.974 16.3897 123.12 16.6733 123.029 16.8605C122.746 16.4826 123.215 15.7266 123.596 15.5374C123.974 15.3477 124.161 15.442 124.353 15.5374C124.353 16.1046 124.99 15.82 125.338 16.0107C125.515 16.2928 125.606 16.4826 125.69 16.8605ZM125.606 18.2294C125.075 18.2294 124.991 18.1534 124.635 18.1534C124.161 18.1534 123.596 18.3232 123.311 18.7951C123.121 18.4191 123.216 18.2298 123.311 17.9949C123.596 17.7143 124.067 17.3329 124.444 17.3329C125.075 17.3324 125.606 17.8057 125.606 18.2294ZM127.77 20.3109C127.012 19.8401 125.877 19.5505 125.253 19.5505C124.903 19.5505 123.785 20.0258 123.408 20.4018L123.215 19.5505C123.785 19.4551 123.785 18.9813 124.161 18.9813C124.443 18.9813 124.813 18.8869 125.075 18.8869C125.338 18.8869 125.515 18.7072 125.605 18.7072C126.065 18.7072 125.877 19.175 126.16 19.175C126.445 19.175 126.634 18.9813 126.825 18.9813C127.299 18.9818 127.675 19.7442 127.77 20.3109ZM128.053 22.387C127.391 22.387 126.732 22.1998 126.635 21.9162C126.445 21.7254 126.635 21.3475 126.16 21.3475C125.971 21.3475 125.69 21.6316 125.69 21.6316C125.515 21.7249 124.991 21.3475 124.991 21.6316C124.991 22.1029 124.635 22.2921 124.161 22.2921C123.974 22.2921 123.785 22.2921 123.596 22.1993C123.596 21.9157 123.596 21.5372 123.596 21.2551C124.813 21.2551 124.727 20.8751 125.253 20.8751C125.606 20.8751 125.878 21.0634 126.16 21.0634C126.635 21.0634 126.353 20.8751 126.825 20.8751C127.299 20.8751 127.483 21.2551 127.77 21.347C127.77 21.6321 128.053 22.012 128.053 22.387ZM127.202 24.4164C126.919 24.3245 126.257 24.2292 126.257 23.9465C126.257 23.5686 126.065 23.4732 125.605 23.4732C125.252 23.4732 124.99 23.5686 124.443 23.7558C124.443 23.7558 124.161 23.3779 124.066 23.0088C124.256 22.9155 124.99 22.7357 125.338 22.7357C125.971 22.7357 126.634 22.7357 126.634 23.0088C126.635 23.3784 127.202 23.4732 127.202 24.4164ZM110.86 9.72633C110.86 9.82169 110.669 10.6715 110.669 10.6715L109.914 10.8622L110.385 8.82189C110.578 9.15913 110.86 9.5361 110.86 9.72633ZM128.999 27.7262C128.999 28.2934 128.999 28.4822 128.714 28.954L128.146 28.1027C128.341 27.8221 128.341 27.4441 128.618 26.9708C128.713 26.9708 128.999 27.6294 128.999 27.7262ZM126.732 26.4975C126.065 26.4975 126.445 25.1743 125.075 25.1743C124.813 25.1743 124.634 25.6496 124.257 25.7415C124.257 25.6496 124.353 25.079 124.353 25.079C124.353 24.8902 124.444 24.5123 124.813 24.325C125.515 24.325 125.338 24.6071 125.878 24.7944C126.16 24.8897 126.353 25.0785 126.733 25.0785L126.732 26.4975ZM120.852 21.1597C120.005 20.6884 119.53 19.8406 118.774 18.9818C119.529 18.9818 119.719 19.7442 120.288 19.8406C120.475 20.0258 120.668 20.1202 120.852 20.4018C120.852 20.6884 120.852 20.8761 120.852 21.1597ZM112.808 14.2148C112.241 14.2148 111.957 13.9321 111.674 13.4072C111.674 13.1231 111.581 12.7521 111.674 12.2782C111.861 12.6572 111.861 12.8469 112.052 13.0347C112.428 12.8469 112.428 13.3098 112.523 13.4072C112.62 13.651 112.808 13.9321 112.808 14.2148ZM128.341 30.1952C128.145 30.4852 128.145 30.4852 128.053 30.7435C128.053 30.2885 127.483 30.0079 127.106 29.2401L127.483 28.574C127.77 28.7633 128.146 29.0494 128.146 29.5187C128.146 29.5187 128.053 29.7213 128.146 29.916C128.146 30.0079 128.341 30.0079 128.341 30.1952ZM126.445 27.538C126.445 27.914 126.353 28.0113 126.257 28.4827C125.605 28.3908 125.605 27.6294 125.515 27.538C125.075 26.9708 124.444 27.4446 123.974 27.4446C123.785 26.8774 124.067 26.8774 124.067 26.4979C124.353 26.4979 124.635 26.3067 124.903 26.4979C125.338 26.3067 125.606 26.782 126.066 26.782C126.16 26.9708 126.353 27.4441 126.445 27.538ZM121.705 23.6624C121.705 24.0424 121.516 24.325 121.612 24.703C121.421 24.1338 121.043 23.5691 120.852 23.0093C120.852 22.9159 120.758 22.916 120.951 22.8221C121.043 22.8221 121.421 22.8221 121.421 22.9155C121.516 23.0953 121.705 23.3784 121.705 23.6624ZM113.468 16.2928C113.372 16.6738 112.995 16.2928 112.905 16.2928C112.62 16.2928 112.241 16.2928 112.052 16.2928C111.957 16.1046 111.861 16.0112 111.861 15.82C112.241 15.7266 112.522 15.5374 112.807 15.7266C112.995 16.0112 113.184 16.2928 113.468 16.2928ZM115.548 18.4186C115.265 18.7076 114.511 18.7946 113.943 18.3232L114.696 17.9949C114.98 18.2294 115.36 18.3227 115.548 18.4186ZM120.383 23.7558C120.383 24.325 120.289 24.9871 120.289 25.6491C120.006 25.6491 120.006 25.4584 120.006 25.0785C119.913 24.5118 119.72 24.0419 119.53 23.4732C119.343 22.7362 118.872 22.1034 118.497 21.2561C118.4 20.8761 117.926 20.6884 117.547 20.4018C118.018 20.4018 118.497 20.4018 118.872 20.7817C118.872 20.9695 118.966 21.0644 119.252 21.348C119.913 21.348 119.72 22.2002 120.289 22.5782C120.006 22.8221 119.913 23.0093 119.72 23.1891C120.005 23.3784 120.288 23.4732 120.383 23.7558ZM116.693 20.9695C116.693 21.2556 116.513 21.3475 116.335 21.5377C116.335 21.5377 115.989 21.0644 115.989 20.8761C115.989 20.4947 115.989 20.3109 116.077 20.0258C116.335 20.3109 116.693 20.6884 116.693 20.9695ZM125.515 29.5192C125.515 29.555 125.338 29.7218 125.338 29.7218C124.903 29.5192 124.635 29.4253 124.067 29.4253C124.067 29.0494 123.785 28.574 123.596 28.574C123.029 28.574 123.121 28.954 122.651 28.954L123.5 28.1027C123.596 27.9135 123.596 27.9135 123.785 27.9135C124.067 28.1027 124.161 28.1995 124.444 28.1995C124.444 28.3908 124.444 28.4822 124.353 28.7633C124.634 28.954 124.813 28.6699 124.99 28.954C125.253 29.0499 125.515 29.1432 125.515 29.5192ZM117.925 23.0088C117.925 23.1886 117.641 23.3779 117.547 23.3779C117.547 23.3779 117.072 22.915 116.984 22.4824C116.89 22.1029 117.263 21.4408 117.263 21.4408C117.357 21.4408 117.454 21.6316 117.547 21.6316C117.641 21.7249 117.547 22.0115 117.641 22.2921C117.925 22.4829 118.115 22.8216 117.925 23.0088ZM110.669 13.9321C109.535 13.3098 108.307 12.8464 106.927 12.7521C106.927 13.0347 106.927 13.3098 106.843 13.4072C107.929 13.9326 108.967 14.404 109.915 15.2528V16.1051C108.967 15.1609 107.929 14.2152 106.756 13.9326C106.669 14.1214 106.307 14.3096 106.216 14.6871C105.554 14.2153 104.796 13.7414 104.038 13.6515C103.754 13.6515 103.565 12.6572 103.565 12.6572C104.038 12.468 104.326 12.1849 104.511 11.7105C104.607 11.7105 104.796 11.7105 104.888 11.7105C105.172 11.7105 105.172 11.5213 105.172 11.2407C105.172 10.672 103.943 10.672 103.378 10.672C102.715 10.672 102.245 10.672 101.86 10.9551C101.678 10.9551 101.77 11.2407 101.77 11.4294C101.77 11.5213 102.052 11.71 102.052 11.71C102.245 11.71 102.433 11.5208 102.623 11.5208C102.527 12.09 102.715 12.3741 103.283 12.6567L103.187 13.574C102.052 13.574 101.296 14.024 100.449 14.4035C100.162 14.2148 99.9753 13.9321 99.7865 13.6505C98.6497 14.0235 96.7434 15.5374 96.7434 15.5374C96.7434 15.5374 96.7434 15.1604 96.7434 14.8768C97.5783 14.1209 98.6496 13.7404 99.5 13.3093V12.6562C99.124 12.467 98.746 12.6562 98.37 12.6562C97.5783 12.7516 96.7439 13.1221 96.1787 13.5735C96.1787 13.3093 96.0843 12.9403 96.0843 12.9403C97.1264 12.3736 98.3705 11.9003 99.5958 12.089C99.5958 11.9956 99.5958 11.709 99.5958 11.709C99.5005 11.5198 99.5005 11.2392 99.3152 11.2392C98.7465 10.6705 98.1788 9.8207 98.1788 9.25399L98.5598 9.0742C98.3705 8.53829 98.1788 7.12923 98.5598 6.6559C98.0104 6.3733 97.4919 5.89997 97.3156 5.52399C97.1264 5.05066 96.9356 4.76805 96.8383 4.23959C97.1264 3.67239 97.3156 3.48366 97.5788 2.92391C97.7522 2.92391 98.0099 2.83103 98.0924 2.6413C98.5593 2.54594 98.8414 2.07609 99.4066 2.36068C99.7875 2.36068 100.162 2.54594 100.45 2.6413C100.45 2.83103 100.45 2.92391 100.636 3.11314C101.203 3.11314 101.203 3.67239 101.491 4.14622C101.771 4.23959 102.053 4.23959 102.246 4.23959C102.811 4.41393 103.284 4.41393 103.473 4.67071C104.228 4.23959 104.983 4.14572 105.835 4.23959C105.927 3.955 106.119 3.57753 106.217 3.11314C106.308 3.3883 106.308 3.11314 106.497 3.11314C106.844 2.83153 107.276 2.36068 107.93 2.54594C108.308 2.83103 108.968 2.6413 109.346 3.11314C109.63 3.48366 109.819 4.04987 110.102 4.49488C109.819 5.05066 110.102 5.80659 109.536 6.0892L108.968 6.6559C108.779 6.6559 108.779 6.84662 108.497 6.84662C108.779 7.5072 108.593 8.44293 108.308 9.0742C108.497 8.99523 108.779 8.99523 108.779 8.72653C108.876 8.82089 108.779 8.99523 108.779 9.0742C108.779 9.25399 108.779 9.34836 108.779 9.34836C108.779 9.8207 108.497 10.294 108.117 10.6705C107.93 11.2392 107.457 11.9951 106.844 12.0885V12.2767C108.212 12.2767 109.345 12.6557 110.67 13.3088V13.9321H110.669ZM114.511 19.8406L114.036 20.0258C112.995 20.0258 112.523 19.7442 112.052 19.3638C112.428 19.3638 112.906 18.8879 112.906 18.8879C113.372 19.3633 114.036 19.7442 114.511 19.8406ZM111.861 17.7138C111.329 17.7138 110.67 17.9944 110.385 17.4277C110.578 17.3324 110.765 17.0498 110.954 16.8605L111.861 17.7138ZM119.53 26.4975C119.53 26.9708 118.966 27.538 118.774 27.914C118.966 27.4446 118.966 26.4975 118.774 26.4975C118.584 26.4041 118.209 26.4975 118.209 26.3062C118.209 26.0221 118.303 25.6496 118.303 25.4589C118.303 25.0785 118.018 24.8897 118.018 24.703C118.018 24.1338 118.682 24.0424 118.871 23.6624C118.966 24.0424 118.966 24.4169 118.966 24.8902C118.966 25.079 119.251 25.6496 118.966 26.1195C118.966 26.4036 119.53 26.2148 119.53 26.4975ZM117.357 25.4589C117.357 26.0221 116.984 26.4975 116.89 27.0656C116.89 26.497 116.793 26.0216 116.423 25.6491C116.423 25.4584 116.694 25.4584 116.514 25.1738C116.514 25.1738 115.99 24.8897 115.99 24.5118C115.99 24.1333 116.336 23.8492 116.514 23.5686C116.514 23.4732 116.89 23.7558 116.89 24.3245C116.89 24.4164 116.89 24.7025 116.793 24.8897C116.693 25.1743 117.357 25.1743 117.357 25.4589ZM109.629 18.7946C109.159 18.8874 108.779 18.4186 108.307 18.2294C108.116 17.7138 108.116 17.1426 107.929 16.8605C108.307 17.1421 109.159 17.1421 108.967 17.9944C108.967 18.2294 109.344 18.4186 109.629 18.7946ZM112.241 21.4413C111.861 21.4413 111.234 21.4413 110.86 21.1597C110.29 20.8761 110.101 20.6884 109.818 20.4018C110.196 20.1202 110.669 20.1202 110.86 20.0258C111.234 20.4018 111.581 21.0644 112.241 21.4413ZM96.4623 6.94199L95.8067 7.12973L95.8976 6.6564C96.0848 6.37379 96.1792 6.0897 96.4628 5.80709V6.94199H96.4623ZM108.496 20.0258C108.116 20.1202 107.456 20.3114 107.275 19.8406C106.755 18.9818 107.016 18.2294 107.275 17.6184C107.456 18.1534 107.55 18.7071 107.642 19.1755C107.74 19.5505 108.307 19.7442 108.496 20.0258ZM105.834 14.8768C105.738 15.442 105.554 16.2928 104.982 16.6733C104.982 16.2923 104.796 16.1041 104.607 15.82C104.511 15.82 104.607 16.1046 104.511 16.1046C104.511 16.2928 104.326 16.6738 104.326 17.0493C104.133 17.1421 103.754 17.3319 103.378 17.1421V16.8605C103.284 16.6738 103.284 16.2928 103.284 16.1046L103.188 16.0112C102.905 16.1046 102.905 16.2928 102.905 16.4831C102.811 16.6738 102.625 16.861 102.625 17.1426C102.246 17.1426 102.053 17.0498 101.771 16.861V16.0117C101.771 15.821 101.771 15.821 101.678 15.821L101.203 16.2938C100.825 16.0122 100.731 15.2533 100.731 14.7829C102.246 13.9336 104.134 14.2157 105.272 14.6876C105.458 14.7815 105.645 14.7815 105.834 14.8768ZM110.669 22.4829C110.669 22.4829 110.48 22.4829 110.385 22.4829C109.344 22.8221 108.496 22.2002 107.643 21.6321C108.116 21.4413 108.779 21.348 109.345 21.348L109.629 21.9166C109.915 22.012 110.385 22.2926 110.669 22.4829ZM96.653 8.24923L96.1792 8.82189C96.2731 9.72633 95.8976 10.3889 95.8976 11.2402L95.4233 9.72633C95.5176 9.34935 95.6125 8.99622 95.8976 8.53928L96.653 8.24923ZM106.307 20.4018C105.834 20.1202 104.982 20.0258 105.172 19.4551C105.361 18.9818 105.645 18.8874 105.834 18.7076C105.926 19.3633 106.02 19.8406 106.307 20.4018ZM114.98 30.0079H114.886C114.695 29.7218 114.601 29.5192 114.412 29.5192C114.695 28.4827 114.13 27.6294 113.943 26.7815V26.4975C114.227 26.9708 114.981 27.4441 114.886 27.914C114.98 28.7633 114.98 29.5192 114.98 30.0079ZM112.808 26.4975C112.333 26.4975 111.957 26.4975 111.674 26.0221C111.581 26.0221 111.421 25.7415 111.329 25.9303C110.861 26.3062 110.386 25.6496 109.818 25.741C109.536 26.0216 109.255 26.2143 108.779 26.3062V26.2143C108.779 25.9303 108.967 25.6491 109.345 25.4589C109.915 25.6496 110.386 24.4164 110.954 25.0785C111.234 25.1738 111.499 25.1738 111.674 25.1738C112.333 25.4589 112.523 26.0221 112.808 26.4975ZM104.227 18.8874C104.227 19.5505 104.133 20.4018 103.472 20.6884L103.283 19.7442C103.565 19.5505 103.848 19.3633 104.227 18.8874ZM107.362 23.0088C107.186 23.1886 106.669 23.3779 106.307 23.3779C105.738 22.915 105.361 22.387 104.796 21.6316L106.307 21.9162C106.583 22.1034 107.105 22.7362 107.362 23.0088ZM112.995 28.3908C112.62 28.1027 112.052 28.1027 111.861 27.6294C111.499 27.5375 111.234 27.5375 110.765 27.5375C110.385 27.6294 109.915 27.6294 109.535 27.6294C109.437 27.6294 109.535 27.5375 109.344 27.4441C108.778 27.6294 108.211 27.6294 107.642 28.1995L108.116 27.0656C108.496 27.0656 108.778 26.8769 108.967 26.8769C109.344 26.7815 109.629 26.7815 109.914 26.7815V26.8769C110.954 26.8769 112.144 26.7815 112.905 27.6294L112.995 28.3908ZM102.245 20.4018C101.677 19.8406 101.202 19.3633 101.202 18.7946C101.49 18.7946 101.77 18.7946 102.052 18.9813C102.052 19.4551 102.245 19.8406 102.245 20.4018ZM100.449 17.7138L100.162 18.8874C99.8814 18.3232 99.5958 17.8057 99.5005 17.1426L100.449 17.7138ZM113.943 30.289C113.847 30.4857 113.654 31.0341 113.563 31.4085C113.372 30.8394 113.184 30.0084 112.522 30.0084C112.428 29.6305 112.333 29.5197 111.957 29.2406L111.234 29.1437C111.328 29.5197 111.861 29.5197 111.498 30.0084C111.86 30.289 112.144 30.289 112.333 30.744C112.522 31.0341 112.333 31.4085 112.427 31.5958L111.86 31.8799C111.86 31.4085 111.956 30.4852 111.328 30.289C110.764 30.4857 110.669 29.7218 110.289 29.5192C110.1 29.5192 110.1 29.0498 109.817 29.2401C109.344 29.5192 108.778 29.2401 108.306 29.5192L108.778 28.7638C109.158 28.4831 109.534 28.5745 109.914 28.4831L110.669 28.3913C111.42 28.3913 112.051 28.7638 112.807 29.0499C113.184 29.2406 113.372 29.5192 113.372 29.9165C113.563 30.0079 113.943 30.0079 113.943 30.289ZM106.496 25.9303H106.307C106.216 25.9303 105.553 25.6496 105.361 25.4589C105.271 25.1743 105.271 24.8897 105.271 24.8897C105.553 24.8897 105.737 24.8897 106.02 24.8897L106.496 25.9303ZM99.2208 19.1755C98.6501 18.9818 98.0099 18.4186 97.7517 17.9949C97.5783 17.6189 97.4914 17.1426 97.4914 16.861C97.8371 16.861 98.0924 17.1426 98.1788 17.3329V17.4282C98.6501 17.9944 99.1245 18.4186 99.2208 19.1755ZM103.753 22.4829C103.663 23.0093 103.377 23.1891 102.904 23.8497C102.624 24.0424 102.052 24.1338 101.49 24.4169C101.581 24.1343 101.86 24.0424 102.052 23.7563C102.245 23.4737 102.623 23.0093 102.715 22.7362C103.188 22.4829 103.378 22.4829 103.753 22.4829ZM110.669 31.5958L110.385 31.8799C110.101 31.5958 110.29 30.8394 109.818 30.744C109.344 30.744 108.967 30.289 108.778 30.1957L109.158 30.0084C109.158 30.0084 109.344 29.9165 109.535 30.0084C109.723 30.1957 109.915 30.289 109.915 30.4857C110.101 30.7445 110.385 30.4857 110.578 30.7445C110.669 31.0341 110.765 31.4085 110.669 31.5958ZM102.052 21.7254C101.771 22.2926 101.491 22.8216 100.921 23.0088C100.636 23.0088 100.163 23.1886 99.5963 23.0088C99.8814 22.8216 100.163 22.7357 100.546 22.4824L101.297 21.7254H102.052ZM103.943 26.0221C103.565 26.3062 103.283 26.3062 102.81 26.2148L102.245 25.4594C102.715 25.4594 103.283 25.4594 103.663 25.4594L103.943 26.0221ZM97.1264 18.8874C96.653 19.3633 96.1792 19.5505 95.99 20.1202C95.99 19.8406 95.8971 19.5505 95.8067 19.3633C95.8976 18.9813 96.1792 18.7946 96.2731 18.7072C96.5587 18.7946 96.7439 18.7946 97.1264 18.8874ZM98.1788 20.3109C98.1788 20.6879 98.0099 21.1592 97.5788 21.6321C97.4914 21.7254 97.2207 21.9166 97.2207 21.9166C97.2207 21.348 97.4914 20.8761 97.4914 20.4018C97.7517 20.3109 98.0099 20.1202 98.1788 20.3109ZM99.5005 21.4413L99.1245 22.8216C98.6501 23.1886 98.0099 23.0088 97.4914 23.0088C98.1788 22.8216 98.7465 22.0115 99.1245 21.4413C99.2208 21.348 99.3152 21.4413 99.5005 21.4413ZM99.9758 26.2148C99.9758 26.4975 99.8814 27.6299 99.8814 27.6299C99.6927 26.9713 99.2213 26.3067 98.6501 26.3067C98.3705 26.0226 98.0924 25.7415 98.0099 25.4594C97.7517 25.1748 97.4914 25.4594 97.1264 25.1748C96.7439 25.1748 96.2731 25.1748 95.8971 25.4594V25.1748L96.5587 24.4174C97.2207 24.5127 98.0099 24.4174 98.1788 24.8907C98.6501 25.1748 99.1245 25.4599 99.2213 25.6501C99.2213 25.742 99.2213 25.742 99.2213 25.9307C99.4066 26.0221 99.787 26.119 99.9758 26.2148ZM99.5005 29.1432L98.8414 29.7218C98.6502 29.5192 98.8414 29.0494 98.5598 28.7633C98.5598 28.574 98.747 28.4826 98.6506 28.3908C98.5598 28.1995 97.4919 27.8216 97.4919 27.8216C97.1269 27.5375 96.6535 27.2494 96.2736 26.8769C95.8976 26.7815 95.6125 26.9703 95.1397 27.0656C95.1397 26.9708 95.1397 26.8769 95.1397 26.8769C95.3289 26.497 95.3289 26.0216 95.8976 26.0216C96.1792 26.0216 96.5592 26.0216 96.7444 26.3057C97.1269 26.3057 97.3156 26.6857 97.5793 26.7811C98.0104 27.2489 98.371 27.4436 98.6506 27.6289C98.6506 27.913 98.747 28.1022 98.9342 28.1991C99.5005 28.2 99.3152 28.7633 99.5005 29.1432ZM98.0924 30.4852L97.8371 31.408L97.2207 29.7213C96.4623 29.0489 95.612 28.9535 95.1392 28.5735C94.7622 28.4817 94.7622 28.7628 94.573 28.5735C94.573 28.3903 94.573 28.1022 94.8586 27.8211H95.4228L95.99 28.1017C96.2731 28.3898 96.9356 28.3898 96.9356 28.953C96.9356 29.0484 96.8383 29.1422 97.1264 29.5182L98.0099 29.7209L98.0924 30.4852ZM95.5171 31.4085C95.5171 32.1625 94.2894 33.201 94.2894 33.201C94.2894 32.7312 94.5725 32.162 94.5725 31.5958C94.5725 31.5958 94.1925 31.2153 93.8141 31.2153C93.5334 31.4085 93.5334 31.5958 93.4391 31.8799C93.1545 32.4471 92.5873 33.0138 92.4949 33.581C92.4005 33.581 92.4005 33.4876 92.4005 33.4876C92.4005 32.5429 92.4949 30.9352 93.0601 30.2895C93.5334 29.7223 93.9134 29.7223 94.4771 29.631L94.9514 29.7228L94.573 30.29C94.9514 30.4852 95.5171 30.8394 95.5171 31.4085ZM92.2068 30.8394C92.2068 31.2153 92.1139 31.5953 91.9297 31.8799C91.8328 31.5034 91.5656 31.0341 91.1107 31.0341C90.7372 31.7845 90.6403 32.0691 91.0163 33.201C90.7372 33.4871 90.544 33.581 90.1695 33.7697C89.9768 33.3918 89.9768 32.7312 89.9768 32.3532C89.9768 31.6907 90.0731 31.0341 90.2619 30.4852C90.5435 30.1952 90.7372 29.7218 91.0163 29.5192H92.0201C91.5661 29.5192 91.5661 29.9165 91.5661 30.1952C91.8328 30.289 92.2068 30.3864 92.2068 30.8394ZM89.7915 31.8799C89.6952 31.8799 89.4106 31.5958 89.1289 31.5958C88.8602 32.1625 89.1289 32.5424 89.1289 33.201C89.1289 33.4871 89.0331 33.7697 89.0331 33.7697C88.8602 33.7697 88.521 33.3918 88.4356 33.0143V31.5039L89.2258 30.4857C89.7915 30.8394 89.9768 31.4085 89.7915 31.8799ZM109.158 5.80709C109.344 5.33376 109.344 4.49538 108.967 4.05036C108.778 3.67339 108.307 3.48415 107.836 3.11364L107.186 3.48416C106.843 3.67289 106.669 4.05036 106.669 4.49538C107.275 4.76855 107.929 5.52448 108.211 6.0897H108.496C108.779 5.80709 108.967 6.0897 109.158 5.80709ZM106.02 6.37379C106.02 6.0897 105.926 6.0897 105.834 6.0897C105.361 6.0897 105.361 5.33376 104.982 5.52448C104.796 5.52448 104.607 5.33376 104.326 5.52448C104.326 5.61786 104.326 5.61786 104.511 5.61786C104.982 5.61786 104.796 6.27744 105.172 6.37379C105.361 6.37379 105.738 6.37379 106.02 6.37379ZM107.456 7.50769C107.456 7.50769 107.643 7.50769 107.456 7.41432L105.458 7.12973C105.272 7.41432 104.796 7.41432 104.796 7.69295H104.607C104.796 8.44343 104.796 9.25449 104.796 10.1038C105.173 10.1992 105.554 10.3879 105.554 10.9541C105.926 11.1448 106.307 11.2397 106.669 11.5203C106.843 11.4284 106.928 11.1453 107.016 10.8617C106.669 10.3884 105.834 10.671 105.834 9.82119L105.271 9.63047C105.271 9.0742 105.271 8.53879 105.172 8.15138L105.271 8.08036C105.271 8.15138 105.361 8.24823 105.553 8.44243C105.926 8.44243 106.307 8.53779 106.669 8.24774C106.843 8.15089 106.843 7.69196 107.015 7.69196C107.187 7.69345 107.362 7.69345 107.456 7.50769ZM102.81 5.52448C102.624 5.33376 102.052 5.61786 101.77 5.71322C101.394 5.80659 101.112 6.0897 101.112 6.37379H102.148C102.245 6.0897 102.624 5.71322 102.81 5.52448ZM100.73 4.49538C100.636 3.57803 99.5963 3.48415 99.125 3.11364H98.747C98.0104 3.38879 97.8376 4.14672 97.7522 4.76855C98.0104 5.61786 98.5598 5.05115 98.9342 5.61786C99.3152 5.33376 100.259 4.6712 100.73 4.49538ZM106.307 13.1226V12.6567H105.361L105.271 12.7521L106.307 13.1226ZM102.052 7.69345C102.052 7.50819 101.86 7.31946 101.582 7.13022C100.825 7.13022 100.163 7.13022 99.5009 7.13022H99.3157C99.3157 7.50819 99.5963 7.69345 99.8819 7.69345C99.8819 8.08135 100.163 8.15238 100.26 8.24923C100.546 8.44392 100.636 8.44392 100.921 8.24923C101.203 8.44392 101.298 8.08135 101.395 8.24923C101.395 8.82189 101.395 9.07519 101.298 9.5366C101.204 10.1997 100.636 10.1048 100.163 10.3889C100.163 10.6715 99.8824 11.1458 100.163 11.4294C100.45 11.2407 100.636 11.1458 101.113 10.9551C101.113 10.672 101.395 10.3889 101.771 10.2002C101.77 9.34935 102.052 8.53928 102.052 7.69345ZM101.297 12.6567C101.112 12.2777 100.635 12.6567 100.162 12.4675C100.162 12.6567 100.162 12.8464 100.449 13.0347C100.73 12.7521 101.203 12.6567 101.297 12.6567Z" fill="#FF6200"/>
</svg>
